PathFileType	4	(X/Y/Z)	C:/Users/beibeiliu/ov580/test_trc/User3\sequence.4_training_dense_left.trc
DataRate	CameraRate	NumFrames	NumMarkers	Units	OrigDataRate	OrigDataStartFrame	OrigNumFrames
120	120	11	19	mm	120	53	209
Frame#	Time	ThumbCMC			ThumbMCP			ThumbIP			ThumbTip			IndexMCP			IndexPIP			IndexTip			MiddleMCP			MiddlePIP			MiddleTip			RingMCP			RingPIP			RingTip			PinkyMCP			PinkyPIP			PinkyTip			BackHand1			BackHand2			BackHand3	
		X0	Y0	Z0	X1	Y1	Z1	X2	Y2	Z2	X3	Y3	Z3	X4	Y4	Z4	X5	Y5	Z5	X6	Y6	Z6	X7	Y7	Z7	X8	Y8	Z8	X9	Y9	Z9	X10	Y10	Z10	X11	Y11	Z11	X12	Y12	Z12	X13	Y13	Z13	X14	Y14	Z14	X15	Y15	Z15	X16	Y16	Z16	X17	Y17	Z17	X18	Y18	Z18	
52	0.433333	-159.312	13.7903	32.7118	-135.272	22.983	23.956	-105.214	30.8982	4.9086	-86.7299	33.7192	-1.27965	-132.711	-20.0247	-33.2822	-113.008	-26.7714	-51.2581	-92.4795	-37.4283	-66.3445	-141.656	-43.6027	-41.5134	-123.938	-49.8204	-56.3448	-98.6899	-64.3791	-73.8666	-154.949	-59.8421	-26.4093	-136.372	-71.1159	-43.9454	-118.487	-89.5177	-55.9166	-166.264	-74.7366	-10.2391	-150.289	-89.766	-22.8738	-135.456	-106.949	-33.0323	-187.467	-33.8719	2.08536	-210.626	-25.377	24.9539	-179.847	-0.834667	7.8418	
53	0.441667	-162.371	22.1293	31.9645	-135.814	32.1386	16.7473	-110.537	42.1508	3.34243	-93.0875	45.2042	-2.81009	-130.961	-13.7372	-33.5561	-108.743	-19.3856	-51.8479	-89.9206	-25.533	-64.0448	-134.58	-34.2914	-40.8694	-114.923	-44.9768	-57.6212	-90.5646	-57.3984	-71.4688	-144.679	-51.8046	-28.113	-129.285	-66.3985	-40.845	-109.314	-78.1043	-52.4649	-157.325	-68.3811	-9.17837	-140.436	-83.0686	-19.9899	-125.008	-98.1004	-27.7295	-189.283	-33.7814	3.16124	-206.162	-24.8831	21.9352	-179.882	2.1719	5.36844	
54	0.45	-163.491	25.974	23.8957	-141.891	36.5512	14.6776	-117.758	50.4682	-0.0528875	-99.8453	56.2213	-7.01254	-129.264	-9.84409	-35.821	-105.148	-14.1789	-55.1411	-87.0767	-18.5943	-64.9793	-133.574	-34.5123	-39.0617	-108.508	-39.1782	-56.3691	-82.1565	-47.6713	-70.686	-141.089	-52.4588	-24.5301	-120.519	-65.289	-40.0465	-98.6439	-72.3461	-49.3705	-147.996	-67.4098	-7.62987	-131.581	-79.9337	-16.0474	-111.04	-91.0142	-21.4215	-183.432	-34.6739	1.68549	-202.82	-28.0289	24.3114	-180.631	2.15838	5.3567	
55	0.458333	-169.671	27.3947	22.804	-146.838	43.7339	9.54247	-125.737	54.6442	-3.189	-109.15	70.0974	-12.2163	-131.822	-5.36308	-35.2468	-107.204	-7.43115	-53.0479	-85.4152	-10.3905	-65.2656	-131.196	-26.8298	-38.7676	-106.844	-30.3884	-56.4447	-81.7193	-38.6391	-66.986	-137.794	-44.151	-22.9541	-113.331	-58.5269	-39.2958	-91.5665	-64.7953	-46.7609	-143.013	-63.1916	-3.35068	-125.399	-71.7015	-12.3649	-99.0481	-85.3431	-16.2882	-179.344	-31.1524	3.57711	-199.411	-26.0522	21.489	-186.879	1.79365	4.38583	
56	0.466667	-175.745	31.5847	18.8647	-156.365	49.3999	6.95561	-136.316	64.608	-7.61761	-122.614	77.0588	-14.0979	-132.584	2.29502	-38.1923	-109.995	3.77517	-53.5218	-88.9265	3.47657	-64.8982	-129.649	-21.6548	-39.8146	-104.557	-24.6755	-55.0949	-75.491	-28.6404	-66.5174	-134.407	-39.5724	-20.8121	-108.696	-50.4903	-36.2274	-83.5493	-53.0768	-45.7176	-139.252	-53.2976	0.1628	-119.988	-63.3754	-9.44205	-93.3435	-73.422	-13.6288	-175.77	-34.984	2.08198	-201.243	-29.9993	24.0906	-185.396	2.73743	2.13091	
57	0.475	-184.721	31.2466	20.9403	-166.449	48.7315	6.66272	-144.551	64.0615	-10.5775	-132.624	78.4143	-18.9594	-133.761	7.79857	-39.7735	-112.364	8.18305	-54.3001	-89.9464	11.8389	-66.2979	-130.989	-18.0698	-39.2394	-109.419	-17.6831	-52.915	-74.6852	-17.0257	-66.3861	-129.655	-34.9766	-23.8251	-108.322	-40.3296	-36.5134	-84.7116	-42.9532	-42.9792	-134.949	-49.6612	0.84102	-112.027	-59.072	-8.26987	-90.5394	-64.1645	-13.2925	-175.601	-32.4171	6.05602	-199.661	-27.0292	21.9781	-191.177	0.581344	2.9812	
58	0.483333	-193.528	33.8189	17.4854	-175.316	49.8037	2.67967	-159.927	67.2922	-13.0992	-146.348	82.5319	-25.6646	-140.939	9.6544	-39.5717	-119.372	13.3407	-55.429	-93.646	17.7541	-70.1255	-133.959	-15.0955	-37.4249	-106.355	-11.9564	-55.7274	-77.4297	-8.06266	-68.4584	-131.784	-31.4448	-21.0171	-106.579	-34.9252	-34.6868	-84.2893	-34.3163	-42.7767	-131.864	-45.66	0.953731	-111.204	-48.6141	-7.90179	-85.0304	-51.5982	-13.445	-175.086	-28.9671	2.14129	-199.391	-30.7867	24.579	-193.418	-2.41179	0.894166	
59	0.491667	-200.978	31.7623	14.1505	-184.817	49.2381	-2.83187	-170.847	66.8232	-20.3076	-157.307	81.1211	-33.8105	-144.076	11.6848	-46.616	-123.958	19.3309	-63.0795	-105.012	20.405	-72.6518	-133.669	-15.3624	-41.2306	-113.322	-10.0583	-56.5324	-82.4831	-7.03649	-68.3809	-128.932	-29.3992	-23.3855	-105.866	-28.3839	-36.7626	-79.2285	-29.2507	-45.6492	-130.744	-39.841	2.87708	-104.271	-42.9188	-7.46744	-85.2817	-41.1773	-11.8986	-176.786	-34.399	7.38663	-198.132	-35.1031	24.7853	-197.86	-2.70472	-1.76752	
60	0.5	-206.871	27.8259	9.33	-193.61	45.2692	-8.62331	-180.016	65.9217	-31.2548	-170.053	77.5311	-42.4448	-152.851	6.70096	-46.3145	-133.028	12.4384	-66.0355	-109.634	18.0031	-82.8262	-139.709	-13.6999	-45.3513	-117.793	-11.777	-59.5057	-87.8253	-3.05769	-78.957	-131.05	-29.224	-24.6614	-107.286	-30.1199	-37.1594	-85.1588	-25.7732	-48.2515	-129.58	-36.434	-0.476349	-106.514	-39.7652	-7.23393	-85.2564	-40.6254	-14.745	-174.527	-33.2235	2.47899	-198.733	-34.2965	25.9464	-197.411	-10.1739	0.0713459	
61	0.508333	-210.386	24.7342	4.16835	-201.15	43.516	-14.6702	-191.377	61.705	-35.4747	-183.072	76.37	-52.0283	-158.279	-0.70659	-51.3245	-140.26	5.39064	-73.8791	-123.304	13.965	-92.1946	-143.196	-19.0251	-50.1333	-120.767	-17.1535	-67.7139	-95.8072	-9.61794	-86.3786	-134.077	-33.3975	-25.7485	-113.003	-32.4297	-43.2739	-86.7529	-31.1726	-54.0868	-128.581	-40.9048	-2.95222	-107.809	-40.652	-12.9694	-87.8415	-38.0191	-21.2195	-174.905	-36.823	2.08815	-196.156	-36.4601	23.9829	-205.555	-11.5003	-3.97035	
62	0.516667	-214.903	19.6608	1.96237	-205.311	37.2751	-22.2584	-198.281	52.664	-40.4987	-190.406	66.6228	-60.7214	-165.791	-7.83011	-59.8765	-152.338	-3.46704	-80.518	-131.454	0.992002	-100.37	-152.343	-27.2053	-53.1976	-131.22	-24.8433	-76.2755	-106.52	-23.1304	-93.0884	-139.766	-39.6672	-32.5125	-122.603	-40.0625	-49.798	-94.9372	-38.6267	-63.4766	-135.032	-44.4629	-7.29551	-113.517	-46.6104	-17.5108	-91.433	-47.0628	-27.9681	-184.755	-40.3067	2.32832	-200.917	-37.9868	23.2033	-207.811	-17.2156	-4.81976	
